<svg id="Capa_1" enable-background="new 0 0 512 512" height="512" viewBox="0 0 512 512" width="512" xmlns="http://www.w3.org/2000/svg"><g><g><path d="m315.608 395.93h-29.211c.761 2.714 1.168 5.576 1.168 8.533 0 17.431-14.134 31.565-31.565 31.565s-31.565-14.134-31.565-31.565c0-2.957.407-5.819 1.168-8.533h-29.211l-11.774 88.939h142.763z" fill="#e0d3ce"/><g fill="#cdbfbb"><path d="m224.435 404.463c0 4.79 1.071 9.333 2.977 13.392h-33.924l2.905-21.922h29.206c-.752 2.709-1.164 5.573-1.164 8.53z"/><path d="m284.588 417.855c1.906-4.059 2.977-8.602 2.977-13.392 0-2.957-.412-5.821-1.164-8.53h29.205l2.905 21.922z"/><path d="m327.381 484.868h-18.656l-11.775-88.935h18.656z"/></g><g><path d="m351.016 492.595h-190.032c-4.267 0-7.726-3.459-7.726-7.726 0-4.268 3.459-7.726 7.726-7.726h190.032c4.268 0 7.726 3.459 7.726 7.726s-3.458 7.726-7.726 7.726z" fill="#756f6f"/></g><g><g><path d="m512 365.093h-512v-325.084c0-11.379 9.225-20.604 20.604-20.604h470.793c11.379 0 20.604 9.225 20.604 20.604v325.084z" fill="#f8f3f1"/><path d="m512 40.009v325.084h-23.179v-325.084c0-11.383-9.22-20.604-20.604-20.604h23.179c11.384 0 20.604 9.22 20.604 20.604z" fill="#efe2dd"/></g><path d="m491.396 404.466h-470.792c-11.379 0-20.604-9.224-20.604-20.603v-48.043h512v48.042c0 11.38-9.225 20.604-20.604 20.604z" fill="#756f6f"/><path d="m512 335.815v48.048c0 11.383-9.22 20.604-20.604 20.604h-23.179c11.384 0 20.604-9.22 20.604-20.604v-48.048z" fill="#5b5555"/></g></g><g><g><path d="m415.392 194.096h-131.303l-19.283-69.029 166.812-12.293z" fill="#fcb44d"/><path d="m431.615 112.774-16.225 81.322h-17.514l15.968-80.014z" fill="#fca62f"/><g><path d="m421.742 252.077h-148.904c-11.641 0-21.111-9.47-21.111-21.11 0-11.641 9.47-21.111 21.111-21.111h131.531l25.168-126.143c.721-3.613 3.893-6.214 7.577-6.214h15.925c4.268 0 7.726 3.459 7.726 7.726 0 4.268-3.459 7.726-7.726 7.726h-9.588l-25.168 126.143c-.721 3.613-3.893 6.214-7.577 6.214h-137.868c-3.12 0-5.658 2.538-5.658 5.658s2.538 5.657 5.658 5.657h148.904c4.268 0 7.726 3.459 7.726 7.726.001 4.269-3.458 7.728-7.726 7.728z" fill="#9e9797"/></g></g><g><g><g><circle cx="302.777" cy="261.869" fill="#848181" r="17.515"/><path d="m320.289 261.869c0 8.229-5.667 15.135-13.324 17.011 1.895-2.806 3.003-6.183 3.003-9.815 0-9.674-7.835-17.518-17.509-17.518-1.445 0-2.852.178-4.194.516 3.143-4.654 8.473-7.713 14.516-7.713 9.674.001 17.508 7.845 17.508 17.519z" fill="#756f6f"/></g></g><g><g><circle cx="390.858" cy="261.869" fill="#848181" r="17.515"/><path d="m408.37 261.869c0 8.229-5.667 15.135-13.324 17.011 1.895-2.806 3.003-6.183 3.003-9.815 0-9.674-7.835-17.518-17.509-17.518-1.445 0-2.852.178-4.194.516 3.143-4.654 8.473-7.713 14.516-7.713 9.673.001 17.508 7.845 17.508 17.519z" fill="#756f6f"/></g></g></g><g><path d="m308.938 175.605c-4.268 0-7.726-3.459-7.726-7.726v-21.634c0-4.268 3.459-7.726 7.726-7.726s7.726 3.459 7.726 7.726v21.634c0 4.267-3.459 7.726-7.726 7.726z" fill="#fca62f"/></g><g><path d="m335.207 175.605c-4.268 0-7.726-3.459-7.726-7.726v-21.634c0-4.268 3.459-7.726 7.726-7.726s7.726 3.459 7.726 7.726v21.634c.001 4.267-3.458 7.726-7.726 7.726z" fill="#fca62f"/></g><g><path d="m361.477 175.605c-4.268 0-7.726-3.459-7.726-7.726v-21.634c0-4.268 3.459-7.726 7.726-7.726s7.726 3.459 7.726 7.726v21.634c0 4.267-3.459 7.726-7.726 7.726z" fill="#fca62f"/></g><g><path d="m387.746 175.605c-4.268 0-7.726-3.459-7.726-7.726v-21.634c0-4.268 3.459-7.726 7.726-7.726s7.726 3.459 7.726 7.726v21.634c.001 4.267-3.458 7.726-7.726 7.726z" fill="#fca62f"/></g></g><g><g fill="#efe2dd"><path d="m105.384 70.9c-2.975-2.797-7.611-2.797-10.586 0l-17.371 16.333c-3.109 2.923-3.259 7.813-.336 10.922 2.922 3.108 7.812 3.26 10.922.336l4.352-4.092v19.566c0 4.268 3.459 7.726 7.726 7.726s7.726-3.459 7.726-7.726v-19.566l4.352 4.092c1.492 1.402 3.393 2.098 5.291 2.098 2.057 0 4.11-.817 5.63-2.434 2.923-3.109 2.773-7.999-.336-10.922z"/><path d="m185.258 87.233-17.372-16.333c-2.975-2.797-7.611-2.797-10.586 0l-17.37 16.333c-3.109 2.923-3.259 7.813-.336 10.922 2.922 3.108 7.811 3.26 10.922.336l4.352-4.092v19.566c0 4.268 3.459 7.726 7.726 7.726s7.726-3.459 7.726-7.726v-19.566l4.352 4.092c1.492 1.402 3.393 2.098 5.291 2.098 2.057 0 4.11-.817 5.63-2.434 2.924-3.109 2.773-7.999-.335-10.922z"/></g><path d="m192.129 205.195h-117.441c-5.69 0-10.302-4.612-10.302-10.302v-31.144c0-5.69 4.612-10.302 10.302-10.302h117.441c5.69 0 10.302 4.612 10.302 10.302v31.144c0 5.69-4.613 10.302-10.302 10.302z" fill="#5bbd93"/><path d="m202.431 163.747v31.142c0 5.697-4.615 10.302-10.302 10.302h-19.038c5.687 0 10.302-4.605 10.302-10.302v-31.142c0-5.687-4.615-10.302-10.302-10.302h19.038c5.686.001 10.302 4.616 10.302 10.302z" fill="#2db181"/><g><g><path d="m117.462 255.159h-53.076c-4.267 0-7.726-3.459-7.726-7.726s3.459-7.726 7.726-7.726h53.076c4.267 0 7.726 3.459 7.726 7.726s-3.459 7.726-7.726 7.726z" fill="#efe2dd"/></g><g><g><path d="m202.431 282.527h-138.045c-4.267 0-7.726-3.459-7.726-7.726s3.459-7.726 7.726-7.726h138.044c4.267 0 7.726 3.459 7.726 7.726s-3.458 7.726-7.725 7.726z" fill="#efe2dd"/></g></g></g></g></g></svg>